<svg width="302" height="30" viewBox="0 0 302 30" fill="none" xmlns="http://www.w3.org/2000/svg">
<path d="M0.92 19.8C0.653334 19.8 0.44 19.72 0.28 19.56C0.12 19.4 0.0400002 19.1867 0.0400002 18.92V7.04C0.0400002 6.77333 0.12 6.56 0.28 6.4C0.44 6.24 0.653334 6.16 0.92 6.16H1.6C1.86667 6.16 2.08 6.24 2.24 6.4C2.4 6.56 2.48 6.77333 2.48 7.04V18.92C2.48 19.1867 2.4 19.4 2.24 19.56C2.08 19.72 1.86667 19.8 1.6 19.8H0.92ZM8.31563 29C8.04896 29 7.83563 28.92 7.67563 28.76C7.51563 28.6 7.43563 28.3867 7.43563 28.12V27.56C7.43563 27.2933 7.51563 27.08 7.67563 26.92C7.83563 26.76 8.04896 26.68 8.31563 26.68H18.9156V28.32C18.9156 28.5867 18.8356 28.7733 18.6756 28.88C18.5156 28.96 18.3023 29 18.0356 29H8.31563ZM17.5556 29C17.289 29 17.089 28.92 16.9556 28.76C16.8223 28.6 16.729 28.3867 16.6756 28.12L15.8356 15.72C15.7556 14.28 15.649 13.0267 15.5156 11.96C15.3823 10.8667 15.0623 10.0133 14.5556 9.4C14.049 8.78667 13.169 8.48 11.9156 8.48H10.4356C10.169 8.48 9.95563 8.4 9.79563 8.24C9.63563 8.08 9.55563 7.86667 9.55563 7.6V7.04C9.55563 6.77333 9.63563 6.56 9.79563 6.4C9.95563 6.24 10.169 6.16 10.4356 6.16H11.9156C13.329 6.16 14.4356 6.4 15.2356 6.88C16.0623 7.33333 16.6756 7.98667 17.0756 8.84C17.4756 9.69333 17.7556 10.6933 17.9156 11.84C18.0756 12.96 18.1956 14.1867 18.2756 15.52L19.1156 28.12C19.169 28.3867 19.1023 28.6 18.9156 28.76C18.729 28.92 18.5023 29 18.2356 29H17.5556ZM25.4588 29C25.1921 29 24.9788 28.92 24.8188 28.76C24.6588 28.6 24.5788 28.3867 24.5788 28.12V7.04C24.5788 6.77333 24.6588 6.56 24.8188 6.4C24.9788 6.24 25.1921 6.16 25.4588 6.16H26.1388C26.4054 6.16 26.6188 6.24 26.7788 6.4C26.9388 6.56 27.0188 6.77333 27.0188 7.04V28.12C27.0188 28.3867 26.9388 28.6 26.7788 28.76C26.6188 28.92 26.4054 29 26.1388 29H25.4588ZM44.3994 29C44.1327 29 43.9327 28.92 43.7994 28.76C43.666 28.6 43.5727 28.3867 43.5194 28.12L41.0794 15.72C40.7594 14.1467 40.3994 12.8267 39.9994 11.76C39.626 10.6933 39.106 9.88 38.4394 9.32C37.7994 8.76 36.9194 8.48 35.7994 8.48H34.3194C34.0527 8.48 33.8394 8.4 33.6794 8.24C33.5194 8.08 33.4394 7.86667 33.4394 7.6V7.04C33.4394 6.77333 33.5194 6.56 33.6794 6.4C33.8394 6.24 34.0527 6.16 34.3194 6.16H35.7994C37.3727 6.16 38.6527 6.52 39.6394 7.24C40.626 7.96 41.4127 9.01333 41.9994 10.4C42.6127 11.7867 43.1194 13.4933 43.5194 15.52L45.9594 28.12C46.0127 28.3867 45.946 28.6 45.7594 28.76C45.5727 28.92 45.346 29 45.0794 29H44.3994ZM38.7594 26.96C37.7727 27.6267 36.8527 28.1467 35.9994 28.52C35.146 28.8667 34.2527 29.1333 33.3194 29.32C33.0527 29.3467 32.826 29.32 32.6394 29.24C32.4527 29.16 32.3594 28.9867 32.3594 28.72V27.64C32.3594 27.1867 32.6394 26.8533 33.1994 26.64C33.386 26.56 33.7194 26.44 34.1994 26.28C34.706 26.0933 35.2394 25.8667 35.7994 25.6C36.386 25.3333 36.906 25.0533 37.3594 24.76C38.0527 24.3067 38.7327 23.7067 39.3994 22.96C40.0927 22.1867 40.666 21.4 41.1194 20.6C41.5727 19.8 41.7594 19.1467 41.6794 18.64L43.9994 18.16C43.9994 19.1467 43.746 20.2133 43.2394 21.36C42.7327 22.48 42.0794 23.5467 41.2794 24.56C40.4794 25.5467 39.6394 26.3467 38.7594 26.96ZM62.3128 29C62.0461 29 61.8328 28.92 61.6728 28.76C61.5128 28.6 61.4328 28.3867 61.4328 28.12V16.12C61.4328 13.72 60.8328 11.8533 59.6328 10.52C58.4328 9.16 56.4861 8.48 53.7928 8.48H48.9128C48.6461 8.48 48.4328 8.4 48.2728 8.24C48.1128 8.08 48.0328 7.86667 48.0328 7.6V7.04C48.0328 6.77333 48.1128 6.56 48.2728 6.4C48.4328 6.24 48.6461 6.16 48.9128 6.16H53.9928C56.2595 6.16 58.1128 6.54666 59.5528 7.32C61.0195 8.06667 62.0995 9.17333 62.7928 10.64C63.5128 12.08 63.8728 13.84 63.8728 15.92V28.12C63.8728 28.3867 63.7928 28.6 63.6328 28.76C63.4728 28.92 63.2595 29 62.9928 29H62.3128ZM85.92 29C85.6533 29 85.4533 28.9333 85.32 28.8C85.1867 28.6667 85.0533 28.5333 84.92 28.4L70.12 7.76C69.9067 7.44 69.8 7.17333 69.8 6.96C69.8 6.74667 69.88 6.56 70.04 6.4C70.2 6.24 70.3867 6.16 70.6 6.16H71.36C71.6267 6.16 71.8267 6.22667 71.96 6.36C72.12 6.49333 72.2533 6.62666 72.36 6.76L87.16 27.4C87.2933 27.5867 87.3733 27.7467 87.4 27.88C87.4533 27.9867 87.48 28.0933 87.48 28.2C87.48 28.4133 87.4 28.6 87.24 28.76C87.08 28.92 86.8933 29 86.68 29H85.92ZM70.12 29C69.8533 29 69.64 28.92 69.48 28.76C69.32 28.6 69.24 28.3867 69.24 28.12V21.76C69.24 20.64 69.3467 19.5333 69.56 18.44C69.8 17.32 70.2667 16.2533 70.96 15.24C71.68 14.2 72.7733 13.2533 74.24 12.4L75.56 14.32C74.4667 14.9867 73.64 15.7467 73.08 16.6C72.52 17.4533 72.1467 18.3467 71.96 19.28C71.7733 20.1867 71.68 21.08 71.68 21.96V28.12C71.68 28.3867 71.6 28.6 71.44 28.76C71.28 28.92 71.0667 29 70.8 29H70.12ZM81.44 21.88L80.44 19.84C81.96 19.1467 83.0267 18.44 83.64 17.72C84.28 16.9733 84.6533 16.2 84.76 15.4C84.8933 14.6 84.96 13.7333 84.96 12.8V7.04C84.96 6.77333 85.04 6.56 85.2 6.4C85.36 6.24 85.5733 6.16 85.84 6.16H86.52C86.7867 6.16 87 6.24 87.16 6.4C87.32 6.56 87.4 6.77333 87.4 7.04V13C87.4 14.1467 87.2667 15.24 87 16.28C86.76 17.2933 86.2133 18.2667 85.36 19.2C84.5333 20.1067 83.2267 21 81.44 21.88ZM104.287 29C104.02 29 103.807 28.92 103.647 28.76C103.487 28.6 103.407 28.3867 103.407 28.12V7.04C103.407 6.77333 103.487 6.56 103.647 6.4C103.807 6.24 104.02 6.16 104.287 6.16H111.367C113.634 6.16 115.487 6.54666 116.927 7.32C118.394 8.06667 119.474 9.17333 120.167 10.64C120.887 12.08 121.247 13.84 121.247 15.92V28.12C121.247 28.3867 121.167 28.6 121.007 28.76C120.847 28.92 120.634 29 120.367 29H104.287ZM105.807 26.68H118.807V16.12C118.807 13.72 118.207 11.8533 117.007 10.52C115.807 9.16 113.86 8.48 111.167 8.48H105.807V26.68ZM128.303 19.8C128.036 19.8 127.823 19.72 127.663 19.56C127.503 19.4 127.423 19.1867 127.423 18.92V7.04C127.423 6.77333 127.503 6.56 127.663 6.4C127.823 6.24 128.036 6.16 128.303 6.16H128.983C129.249 6.16 129.463 6.24 129.623 6.4C129.783 6.56 129.863 6.77333 129.863 7.04V18.92C129.863 19.1867 129.783 19.4 129.623 19.56C129.463 19.72 129.249 19.8 128.983 19.8H128.303ZM135.698 29C135.432 29 135.218 28.92 135.058 28.76C134.898 28.6 134.818 28.3867 134.818 28.12V27.56C134.818 27.2933 134.898 27.08 135.058 26.92C135.218 26.76 135.432 26.68 135.698 26.68H146.298V28.32C146.298 28.5867 146.218 28.7733 146.058 28.88C145.898 28.96 145.685 29 145.418 29H135.698ZM144.938 29C144.672 29 144.472 28.92 144.338 28.76C144.205 28.6 144.112 28.3867 144.058 28.12L143.218 15.72C143.138 14.28 143.032 13.0267 142.898 11.96C142.765 10.8667 142.445 10.0133 141.938 9.4C141.432 8.78667 140.552 8.48 139.298 8.48H137.818C137.552 8.48 137.338 8.4 137.178 8.24C137.018 8.08 136.938 7.86667 136.938 7.6V7.04C136.938 6.77333 137.018 6.56 137.178 6.4C137.338 6.24 137.552 6.16 137.818 6.16H139.298C140.712 6.16 141.818 6.4 142.618 6.88C143.445 7.33333 144.058 7.98667 144.458 8.84C144.858 9.69333 145.138 10.6933 145.298 11.84C145.458 12.96 145.578 14.1867 145.658 15.52L146.498 28.12C146.552 28.3867 146.485 28.6 146.298 28.76C146.112 28.92 145.885 29 145.618 29H144.938ZM152.842 29C152.575 29 152.362 28.92 152.202 28.76C152.042 28.6 151.962 28.3867 151.962 28.12V7.04C151.962 6.77333 152.042 6.56 152.202 6.4C152.362 6.24 152.575 6.16 152.842 6.16H153.522C153.788 6.16 154.002 6.24 154.162 6.4C154.322 6.56 154.402 6.77333 154.402 7.04V28.12C154.402 28.3867 154.322 28.6 154.162 28.76C154.002 28.92 153.788 29 153.522 29H152.842ZM163.582 8.48V12.28C163.582 13.4267 163.702 14.3733 163.942 15.12C164.209 15.8667 164.689 16.3333 165.382 16.52L167.022 16.92C167.236 16.9733 167.396 17.12 167.502 17.36C167.636 17.5733 167.702 17.8533 167.702 18.2V18.76C167.702 19.0267 167.569 19.2133 167.302 19.32C167.036 19.4 166.756 19.4133 166.462 19.36L164.942 19C164.089 18.7867 163.382 18.4133 162.822 17.88C162.262 17.3467 161.849 16.6133 161.582 15.68C161.316 14.7467 161.182 13.6133 161.182 12.28V7.04C161.182 6.77333 161.262 6.56 161.422 6.4C161.582 6.24 161.796 6.16 162.062 6.16H169.222C171.062 6.16 172.609 6.54666 173.862 7.32C175.116 8.06667 176.076 9.17333 176.742 10.64C177.409 12.08 177.769 13.84 177.822 15.92C177.849 16.32 177.862 16.88 177.862 17.6C177.862 18.2933 177.849 18.84 177.822 19.24C177.769 21.2933 177.409 23.0533 176.742 24.52C176.076 25.9867 175.116 27.1067 173.862 27.88C172.609 28.6267 171.062 29 169.222 29H162.582C162.316 29 162.102 28.92 161.942 28.76C161.782 28.6 161.702 28.3867 161.702 28.12V27.56C161.702 27.2933 161.782 27.08 161.942 26.92C162.102 26.76 162.316 26.68 162.582 26.68H169.022C171.076 26.68 172.622 26.0133 173.662 24.68C174.702 23.32 175.276 21.44 175.382 19.04C175.409 18.64 175.422 18.16 175.422 17.6C175.422 17.0133 175.409 16.52 175.382 16.12C175.329 13.72 174.769 11.8533 173.702 10.52C172.636 9.16 171.076 8.48 169.022 8.48H163.582ZM187.932 29.32C187.692 29.4 187.465 29.3867 187.252 29.28C187.065 29.1733 186.972 28.9867 186.972 28.72V27.72C186.972 27.5067 187.038 27.32 187.172 27.16C187.305 26.9733 187.518 26.8267 187.812 26.72L189.452 26.08C190.652 25.6 191.732 25 192.692 24.28C193.652 23.56 194.398 22.5867 194.932 21.36C195.492 20.1067 195.772 18.4667 195.772 16.44C195.772 14.4667 195.532 12.9067 195.052 11.76C194.572 10.5867 193.772 9.74667 192.652 9.24C191.532 8.73333 190.025 8.48 188.132 8.48H186.772C186.505 8.48 186.292 8.4 186.132 8.24C185.972 8.08 185.892 7.86667 185.892 7.6V7.04C185.892 6.77333 185.972 6.56 186.132 6.4C186.292 6.24 186.505 6.16 186.772 6.16H188.332C190.785 6.16 192.732 6.49333 194.172 7.16C195.612 7.82667 196.638 8.93333 197.252 10.48C197.892 12.0267 198.212 14.1067 198.212 16.72C198.212 18.5867 197.972 20.2 197.492 21.56C197.012 22.8933 196.358 24.0267 195.532 24.96C194.732 25.8667 193.812 26.6267 192.772 27.24C191.758 27.8267 190.705 28.32 189.612 28.72L187.932 29.32ZM187.452 8.48L183.532 8.44C183.265 8.44 183.052 8.37333 182.892 8.24C182.732 8.08 182.652 7.86667 182.652 7.6V1.48C182.652 1.21333 182.732 0.999999 182.892 0.839998C183.052 0.679998 183.265 0.599998 183.532 0.599998H184.212C184.478 0.599998 184.692 0.679998 184.852 0.839998C185.012 0.999999 185.092 1.21333 185.092 1.48V6.16H187.572L187.452 8.48ZM213.434 29.4C209.94 29.4 207.447 28.5467 205.954 26.84C204.487 25.1333 203.754 22.7333 203.754 19.64V7.04C203.754 6.77333 203.834 6.56 203.994 6.4C204.154 6.24 204.367 6.16 204.634 6.16H205.314C205.58 6.16 205.794 6.24 205.954 6.4C206.114 6.56 206.194 6.77333 206.194 7.04V19.44C206.194 21.84 206.767 23.72 207.914 25.08C209.087 26.4133 210.927 27.08 213.434 27.08C215.94 27.08 217.754 26.48 218.874 25.28C220.02 24.0533 220.62 22.24 220.674 19.84C220.7 19.5733 220.7 19.1333 220.674 18.52C220.674 17.9067 220.674 17.2933 220.674 16.68C220.674 16.04 220.674 15.5867 220.674 15.32C220.62 12.8133 220.06 11.0133 218.994 9.92C217.954 8.82667 216.607 8.28 214.954 8.28C214.474 8.28 213.9 8.37333 213.234 8.56C212.594 8.74667 212.034 9 211.554 9.32C211.34 9.45333 211.1 9.46667 210.834 9.36C210.594 9.25333 210.474 9.06667 210.474 8.8V8.28C210.474 8.04 210.487 7.82667 210.514 7.64C210.54 7.45333 210.66 7.29333 210.874 7.16C211.46 6.78667 212.074 6.49333 212.714 6.28C213.354 6.06667 214.167 5.96 215.154 5.96C216.78 5.96 218.167 6.28 219.314 6.92C220.487 7.56 221.394 8.56 222.034 9.92C222.7 11.2533 223.06 12.9867 223.114 15.12C223.14 15.3867 223.154 15.8667 223.154 16.56C223.154 17.2267 223.154 17.9067 223.154 18.6C223.154 19.2933 223.14 19.7733 223.114 20.04C223.06 22.0933 222.714 23.8267 222.074 25.24C221.434 26.6267 220.42 27.6667 219.034 28.36C217.647 29.0533 215.78 29.4 213.434 29.4ZM251.532 29C251.265 29 251.052 28.92 250.892 28.76C250.732 28.6 250.652 28.3867 250.652 28.12V16.12C250.652 13.72 250.052 11.8533 248.852 10.52C247.652 9.16 245.705 8.48 243.012 8.48H238.132C237.865 8.48 237.652 8.4 237.492 8.24C237.332 8.08 237.252 7.86667 237.252 7.6V7.04C237.252 6.77333 237.332 6.56 237.492 6.4C237.652 6.24 237.865 6.16 238.132 6.16H243.212C245.478 6.16 247.332 6.54666 248.772 7.32C250.238 8.06667 251.318 9.17333 252.012 10.64C252.732 12.08 253.092 13.84 253.092 15.92V28.12C253.092 28.3867 253.012 28.6 252.852 28.76C252.692 28.92 252.478 29 252.212 29H251.532ZM262.059 8.48V12.28C262.059 13.4267 262.179 14.3733 262.419 15.12C262.685 15.8667 263.165 16.3333 263.859 16.52L265.499 16.92C265.712 16.9733 265.872 17.12 265.979 17.36C266.112 17.5733 266.179 17.8533 266.179 18.2V18.76C266.179 19.0267 266.045 19.2133 265.779 19.32C265.512 19.4 265.232 19.4133 264.939 19.36L263.419 19C262.565 18.7867 261.859 18.4133 261.299 17.88C260.739 17.3467 260.325 16.6133 260.059 15.68C259.792 14.7467 259.659 13.6133 259.659 12.28V7.04C259.659 6.77333 259.739 6.56 259.899 6.4C260.059 6.24 260.272 6.16 260.539 6.16H267.699C269.539 6.16 271.085 6.54666 272.339 7.32C273.592 8.06667 274.552 9.17333 275.219 10.64C275.885 12.08 276.245 13.84 276.299 15.92C276.325 16.32 276.339 16.88 276.339 17.6C276.339 18.2933 276.325 18.84 276.299 19.24C276.245 21.2933 275.885 23.0533 275.219 24.52C274.552 25.9867 273.592 27.1067 272.339 27.88C271.085 28.6267 269.539 29 267.699 29H261.059C260.792 29 260.579 28.92 260.419 28.76C260.259 28.6 260.179 28.3867 260.179 28.12V27.56C260.179 27.2933 260.259 27.08 260.419 26.92C260.579 26.76 260.792 26.68 261.059 26.68H267.499C269.552 26.68 271.099 26.0133 272.139 24.68C273.179 23.32 273.752 21.44 273.859 19.04C273.885 18.64 273.899 18.16 273.899 17.6C273.899 17.0133 273.885 16.52 273.859 16.12C273.805 13.72 273.245 11.8533 272.179 10.52C271.112 9.16 269.552 8.48 267.499 8.48H262.059ZM291.358 29.4C288.158 29.4 285.771 28.5467 284.198 26.84C282.651 25.1067 281.878 22.64 281.878 19.44V7.04C281.878 6.77333 281.958 6.56 282.118 6.4C282.278 6.24 282.491 6.16 282.758 6.16H292.158C294.424 6.16 296.238 6.50667 297.598 7.2C298.958 7.89333 299.944 8.93333 300.558 10.32C301.198 11.7067 301.558 13.44 301.638 15.52C301.664 15.7867 301.678 16.24 301.678 16.88C301.678 17.4933 301.678 18.1067 301.678 18.72C301.678 19.3333 301.664 19.7733 301.638 20.04C301.584 22.0933 301.198 23.8267 300.478 25.24C299.784 26.6267 298.691 27.6667 297.198 28.36C295.704 29.0533 293.758 29.4 291.358 29.4ZM291.358 27.08C294.158 27.08 296.144 26.48 297.318 25.28C298.518 24.0533 299.144 22.24 299.198 19.84C299.224 19.5733 299.238 19.16 299.238 18.6C299.238 18.04 299.238 17.4933 299.238 16.96C299.238 16.4 299.224 15.9867 299.198 15.72C299.144 13.32 298.451 11.52 297.118 10.32C295.784 9.09333 294.064 8.48 291.958 8.48H284.318V19.44C284.318 21.84 284.891 23.72 286.038 25.08C287.184 26.4133 288.958 27.08 291.358 27.08Z" fill="white"/>
</svg>
