<svg width="51" height="51" viewBox="0 0 51 51" fill="none" xmlns="http://www.w3.org/2000/svg">
<path d="M0 25.5C0 11.4167 11.4167 0 25.5 0C39.5833 0 51 11.4167 51 25.5C51 39.5833 39.5833 51 25.5 51C11.4167 51 0 39.5833 0 25.5Z" fill="url(#paint0_linear_2847_18)"/>
<path d="M34.698 26.8319L33.0738 26.8362V35.1502C33.0738 35.8634 32.4981 36.4392 31.7848 36.4392H27.4065V31.4637C27.4065 30.1317 26.3281 29.049 24.9918 29.049C23.6556 29.049 22.5771 30.1274 22.5771 31.4637V36.4392H18.2031C17.4899 36.4392 16.9141 35.8634 16.9141 35.1502V26.862L15.3072 26.8663C14.1471 26.8663 13.5628 25.4656 14.3834 24.6449L23.329 15.6993C24.2614 14.7669 25.7695 14.7669 26.7019 15.6993L35.6174 24.6148C36.4338 25.4312 35.858 26.8319 34.698 26.8319Z" fill="url(#paint1_linear_2847_18)"/>
<defs>
<linearGradient id="paint0_linear_2847_18" x1="25.5" y1="0" x2="25.5" y2="51" gradientUnits="userSpaceOnUse">
<stop stop-color="#074F7F"/>
<stop offset="1" stop-color="#0467A9"/>
</linearGradient>
<linearGradient id="paint1_linear_2847_18" x1="25" y1="15" x2="25" y2="36.4392" gradientUnits="userSpaceOnUse">
<stop stop-color="white"/>
<stop offset="1" stop-color="#EFEFEF"/>
</linearGradient>
</defs>
</svg>
